<svg width="72" height="72" fill="none" xmlns="http://www.w3.org/2000/svg"><path d="M44.75 18.5V1h17.5v17.5c0 4.822 3.928 8.75 8.75 8.75v17.5c-14.506 0-26.25-11.783-26.25-26.25zM18.5 27.25H1V9.75h17.5c4.822 0 8.75-3.928 8.75-8.75h17.5c0 14.467-11.744 26.25-26.25 26.25zm8.75 26.25V71H9.75V53.5c0-4.822-3.928-8.75-8.75-8.75v-17.5c14.506 0 26.25 11.744 26.25 26.25zm26.25-8.75H71v17.5H53.5c-4.822 0-8.75 3.928-8.75 8.75h-17.5c0-14.506 11.744-26.25 26.25-26.25z" stroke="#000" stroke-miterlimit="10"/></svg>