<svg width="13" height="12" fill="none" xmlns="http://www.w3.org/2000/svg"><path d="M.18.18A.623.623 0 01.986.122l.07.06L6.383 5.51 11.71.18c.22-.22.563-.24.804-.06l.07.06c.22.22.239.562.06.804l-.06.07-5.765 5.764a.618.618 0 01-.804.06l-.07-.06L.182 1.054a.618.618 0 010-.873z" fill="#000"/><path d="M.18 5.18a.62.62 0 01.805-.059l.07.06 5.327 5.328L11.71 5.18c.22-.22.563-.24.804-.06l.07.06c.22.22.239.562.06.804l-.06.07-5.765 5.764a.618.618 0 01-.804.06l-.07-.06L.182 6.054a.618.618 0 010-.873z" fill="#000"/></svg>