<svg width="86" height="22" fill="none" xmlns="http://www.w3.org/2000/svg"><path d="M.045 21.607V.393h10.934c2.62 0 4.627.49 6.024 1.473 1.397.96 2.095 2.357 2.095 4.19 0 1.18-.272 2.118-.818 2.816-.546.677-1.31 1.19-2.292 1.539-.982.327-2.15.534-3.503.622l.131-.197c.982.022 1.91.11 2.783.262.873.131 1.637.371 2.292.72.676.35 1.2.84 1.571 1.474.393.61.59 1.407.59 2.39 0 1.31-.328 2.39-.983 3.24-.655.852-1.571 1.507-2.75 1.965-1.156.436-2.499.677-4.027.72H.045zM3.81 18.4h7.759c1.418 0 2.51-.24 3.273-.72.786-.502 1.179-1.277 1.179-2.325 0-.807-.24-1.397-.72-1.768-.459-.37-1.07-.61-1.834-.72a16.88 16.88 0 00-2.39-.164H3.81V18.4zm0-8.84h6.94c1.419 0 2.51-.24 3.274-.72.786-.502 1.179-1.277 1.179-2.324 0-1.048-.393-1.79-1.179-2.226-.764-.459-1.768-.688-3.012-.688H3.81V9.56zM24.39.393h3.797v21.214h-3.798V.393zm29.286 17.286l-1.178.458V.393h3.797v21.214h-3.797L36.489 4.42l1.146-.459v17.646H33.87V.393h3.765l16.041 17.286zM72.953 22c-2.51 0-4.703-.447-6.58-1.342-1.855-.895-3.296-2.161-4.322-3.798-1.003-1.637-1.505-3.59-1.505-5.86 0-2.27.502-4.223 1.505-5.86 1.026-1.659 2.467-2.925 4.322-3.798C68.25.447 70.443 0 72.953 0c2.554 0 4.747.447 6.58 1.342 1.856.873 3.296 2.14 4.322 3.798 1.026 1.637 1.539 3.59 1.539 5.86 0 2.27-.513 4.223-1.539 5.86-1.026 1.637-2.466 2.903-4.321 3.798C77.7 21.553 75.507 22 72.954 22zm0-3.34c1.659 0 3.121-.272 4.387-.818 1.288-.567 2.292-1.418 3.012-2.553.742-1.135 1.113-2.565 1.113-4.289 0-1.702-.37-3.121-1.113-4.256-.72-1.135-1.724-1.986-3.012-2.554-1.266-.567-2.728-.85-4.387-.85-1.637 0-3.11.283-4.42.85-1.287.568-2.302 1.42-3.044 2.554-.742 1.135-1.113 2.554-1.113 4.256 0 1.724.371 3.154 1.113 4.289.742 1.135 1.757 1.986 3.045 2.553 1.31.546 2.782.819 4.42.819z" fill="#000"/></svg>