<svg width="40" height="40" fill="none" xmlns="http://www.w3.org/2000/svg"><path d="M20 10h-8.333v8.333H20V10zM8.333 10H0v8.333h8.333V10zm0 8.333H0v8.334h8.333v-8.334zM30 20h-8.333v8.333H30V20zm0 11.667h-8.333V40H30v-8.333zm-8.333 0h-8.334V40h8.334v-8.333zM10 8.333V0C4.467 0 0 4.467 0 10h8.333A1.68 1.68 0 0110 8.333zm10 10h-8.333c0 5.534 4.466 10 10 10V20A1.664 1.664 0 0120 18.333zm-10-10V0c5.533 0 10 4.467 10 10h-8.333A1.68 1.68 0 0010 8.333zM31.667 30H40c0-5.533-4.467-10-10-10v8.333A1.68 1.68 0 0131.667 30zm0 0H40c0 5.533-4.467 10-10 10v-8.333c.911 0 1.667-.734 1.667-1.667zM9 32H0v8h9v-8z" fill="#000"/></svg>