<svg width="72" height="72" fill="none" xmlns="http://www.w3.org/2000/svg"><path d="M36 71c9.665 0 17.5-7.835 17.5-17.5S45.665 36 36 36s-17.5 7.835-17.5 17.5S26.335 71 36 71zm0-35c9.665 0 17.5-7.835 17.5-17.5S45.665 1 36 1 18.5 8.835 18.5 18.5 26.335 36 36 36z" stroke="#000" stroke-miterlimit="10"/><path d="M53.5 53.5C63.165 53.5 71 45.665 71 36s-7.835-17.5-17.5-17.5S36 26.335 36 36s7.835 17.5 17.5 17.5zm-35 0C28.165 53.5 36 45.665 36 36s-7.835-17.5-17.5-17.5S1 26.335 1 36s7.835 17.5 17.5 17.5z" stroke="#000" stroke-miterlimit="10"/></svg>