<svg width="71" height="60" fill="none" xmlns="http://www.w3.org/2000/svg"><path d="M20.752.055C12.61.553 5.506 5.317 2.127 12.517a21.727 21.727 0 00-2.022 7.298C.022 20.7-.019 27.209.01 37.359l.04 16.133.305.914c.858 2.492 2.99 4.528 5.65 5.345.775.235 1.495.249 10.247.249 10.33 0 10.136.014 11.908-.845 1.828-.886 3.365-2.603 4.071-4.528l.36-.997.042-9.582c.042-10.593.042-10.552-.845-12.352-.553-1.163-2.188-2.825-3.35-3.434-1.745-.914-1.745-.914-8.517-.997-6.051-.083-6.176-.083-6.744-.402a4.672 4.672 0 01-1.869-1.87c-.43-.802-.526-3.696-.194-5.358.651-3.171 2.894-6.107 5.788-7.52 1.897-.941 2.66-1.093 5.816-1.19l2.714-.083.596-.416c.318-.235.734-.692.914-1.024.304-.596.318-.72.318-3.85 0-3.517-.055-3.877-.803-4.653-.706-.748-1.052-.844-3.074-.872-1.025-.014-2.216 0-2.631.028zM58.97.068c-6.84.347-13.348 4.016-17.06 9.597-.844 1.274-2.187 4.002-2.658 5.4-.18.568-.485 1.662-.65 2.423l-.32 1.385-.055 16.894c-.027 12.283 0 17.115.111 17.725.457 2.41 2.146 4.583 4.362 5.663 1.773.859 1.579.845 11.909.845 8.752 0 9.471-.014 10.247-.25 2.659-.816 4.791-2.852 5.65-5.344.304-.9.304-1.011.346-10.275.041-10.136.028-10.496-.706-12.075-.748-1.634-2.437-3.323-3.975-4.016-1.495-.665-1.689-.692-8.1-.775-6.038-.083-6.093-.083-6.716-.402-1.897-.997-2.52-2.603-2.23-5.747.07-.858.277-1.994.43-2.52 1.052-3.42 3.988-6.273 7.505-7.284.803-.221 1.578-.304 3.794-.373 2.631-.097 2.797-.111 3.268-.43a3.118 3.118 0 001.233-1.772c.166-.762.152-5.72-.028-6.564a2.759 2.759 0 00-2.05-2.05c-.65-.138-2.34-.165-4.306-.055z" fill="#000" fill-opacity=".05"/></svg>