<svg width="72" height="83" fill="none" xmlns="http://www.w3.org/2000/svg"><path d="M36 21.218l17.523 10.11L36 41.436l-17.523-10.11L36 21.218zm0 20.219l-17.523-10.11v20.219L36 61.655V41.437zm-17.523-10.11L1 21.218v20.219l17.477 10.109V31.327z" stroke="#000" stroke-miterlimit="10"/><path d="M36 61.655l-17.523-10.11v20.219L36 81.873V61.655zm-17.523-10.11L1 41.436v20.219l17.477 10.109V51.546zm0-40.435L36 21.217l-17.523 10.11L1 21.217 18.477 11.11zm35.046 0L71 21.217l-17.477 10.11L36 21.217 53.523 11.11z" stroke="#000" stroke-miterlimit="10"/><path d="M36 1l17.523 10.11L36 21.217 18.477 11.11 36 1zm0 40.437l17.523-10.11v20.219L36 61.655V41.437zm17.523-10.11L71 21.218v20.219L53.523 51.546V31.327z" stroke="#000" stroke-miterlimit="10"/><path d="M36 61.655l17.523-10.11v20.219L36 81.873V61.655zm17.523-10.11L71 41.436v20.219L53.523 71.764V51.546z" stroke="#000" stroke-miterlimit="10"/></svg>